#!OML:ASF H:\ManfredETheater\Project 1\Capture day 1\Session 1\subject.ASF
:FULLY-SPECIFIED
:DEGREES
378
root 1.94098 16.6566 -45.0166 -154.107 -7.73384 -178.468
lowerback 14.8037 1.76486 7.5759
upperback -0.409481 3.63233 1.49067
thorax -8.39473 1.38535 -3.44147
lowerneck -19.7311 -1.78493 -2.88535
upperneck 3.59076 -1.84589 -2.18255
head 4.1991 -1.25438 -0.404665
rclavicle 1.59028e-015 -1.74931e-014
rhumerus -33.9054 16.4637 -82.7623
rradius 121.859
rwrist -11.1878
rhand -21.38 7.98415
rfingers 7.12502
rthumb 5.0074 -21.9367
lclavicle 1.59028e-015 -1.74931e-014
lhumerus -79.6817 -11.0647 92.3179
lradius 108.679
lwrist 13.3003
lhand -20.4622 -13.0302
lfingers 7.12502
lthumb 5.89364 16.8678
rfemur 9.8954 4.95132 31.6617
rtibia 33.2161
rfoot 34.0386 -4.77805
rtoes -18.8331
lfemur -77.547 6.08334 -27.7774
ltibia 67.5682
lfoot -15.6851 -19.3282
ltoes -16.195
379
root 1.97481 16.658 -45.5146 -154.328 -8.09822 -178.66
lowerback 14.9019 1.80385 7.1906
upperback -0.22221 3.60883 1.44595
thorax -8.26691 1.39873 -3.26971
lowerneck -19.7683 -1.83369 -3.06549
upperneck 3.29214 -1.91154 -1.91772
head 4.11432 -1.27455 -0.29769
rclavicle 1.59028e-015 -7.15625e-015
rhumerus -35.0689 15.7382 -83.9266
rradius 118.371
rwrist -10.6824
rhand -21.5001 7.02189
rfingers 7.12502
rthumb 4.89149 -22.9017
lclavicle 1.59028e-015 -7.15625e-015
lhumerus -77.2332 -10.3123 92.526
lradius 108.431
lwrist 13.8053
lhand -20.6826 -12.5378
lfingers 7.12502
lthumb 5.68077 17.366
rfemur 8.22514 4.04708 31.6953
rtibia 38.7532
rfoot 34.3616 -6.47325
rtoes -17.3321
lfemur -76.4767 5.92039 -27.9891
ltibia 65.8846
lfoot -15.3814 -19.1312
ltoes -15.9208
380
root 2.00765 16.6498 -46.0158 -154.643 -8.45396 -178.962
lowerback 15.045 1.81645 6.68971
upperback -0.0105976 3.53147 1.39748
thorax -8.14989 1.38948 -3.02753
lowerneck -19.7386 -1.86734 -3.21312
upperneck 2.96919 -1.96381 -1.69787
head 4.01166 -1.29014 -0.207846
rclavicle 3.65764e-014 2.14687e-014
rhumerus -36.1921 14.8877 -85.0101
rradius 114.625
rwrist -10.6483
rhand -21.6441 5.98382
rfingers 7.12502
rthumb 4.75243 -23.9429
lclavicle 3.65764e-014 2.14687e-014
lhumerus -74.6585 -9.58251 92.8591
lradius 108.007
lwrist 14.4591
lhand -20.7872 -12.0735
lfingers 7.12502
lthumb 5.57977 17.833
rfemur 6.55245 2.99243 31.5405
rtibia 44.3077
rfoot 34.6141 -7.86343
rtoes -15.4435
lfemur -75.0728 5.60364 -28.0019
ltibia 64.7027
lfoot -15.2309 -18.7396
ltoes -14.5366
381
root 2.03844 16.6333 -46.5207 -155.051 -8.80031 -179.367
lowerback 15.244 1.79872 6.09681
upperback 0.210346 3.39944 1.33344
thorax -8.06273 1.3546 -2.7409
lowerneck -19.6437 -1.8795 -3.30495
upperneck 2.65296 -1.99695 -1.51719
head 3.90088 -1.29695 -0.136658
rclavicle 4.13472e-014 5.56597e-015
rhumerus -37.2595 13.9248 -86.0054
rradius 110.63
rwrist -11.0472
rhand -21.8337 4.96034
rfingers 7.12502
rthumb 4.56931 -24.9704
lclavicle 4.13472e-014 5.56597e-015
lhumerus -72.0012 -8.88345 93.2967
lradius 107.399
lwrist 15.1689
lhand -20.7938 -11.7382
lfingers 7.12502
lthumb 5.57342 18.1685
rfemur 4.8914 1.81142 31.1916
rtibia 49.8285
rfoot 34.6235 -8.72026
rtoes -13.6212
lfemur -73.365 5.14149 -27.8722
ltibia 64.0323
lfoot -15.2435 -18.2904
ltoes -11.4005
382
root 2.06657 16.6079 -47.0278 -155.534 -9.13105 -179.861
lowerback 15.5075 1.75317 5.43504
upperback 0.422952 3.21993 1.24617
thorax -8.02515 1.29553 -2.43234
lowerneck -19.4926 -1.87292 -3.33958
upperneck 2.36734 -2.01344 -1.36062
head 3.79084 -1.2949 -0.0801285
rclavicle 7.95139e-016 -4.77083e-015
rhumerus -38.265 12.8603 -86.915
rradius 106.392
rwrist -11.7593
rhand -22.0656 4.14577
rfingers 7.12502
rthumb 4.34545 -25.7896
lclavicle 7.95139e-016 -4.77083e-015
lhumerus -69.2981 -8.23727 93.8187
lradius 106.623
lwrist 15.8404
lhand -20.7112 -11.5549
lfingers 7.12502
lthumb 5.65322 18.3497
rfemur 3.21529 0.529356 30.6455
rtibia 55.3128
rfoot 34.234 -9.00257
rtoes -12.3533
lfemur -71.4019 4.5534 -27.6647
ltibia 63.8633
lfoot -15.6761 -17.6186
ltoes -7.2481
383
root 2.09161 16.5789 -47.5379 -156.065 -9.39598 -180.485
lowerback 15.8422 1.69573 4.64977
upperback 0.616359 3.00234 1.11346
thorax -8.05137 1.2188 -2.09623
lowerneck -19.3675 -1.8668 -3.31397
upperneck 2.17791 -2.03479 -1.20326
head 3.71448 -1.29363 -0.0342245
rclavicle -5.56597e-015 2.22639e-014
rhumerus -39.2104 11.69 -87.7329
rradius 101.948
rwrist -12.6449
rhand -22.3321 3.51563
rfingers 7.12502
rthumb 4.08806 -26.4249
lclavicle -5.56597e-015 2.22639e-014
lhumerus -66.5675 -7.65875 94.4151
lradius 105.69
lwrist 16.3429
lhand -20.5631 -11.5198
lfingers 7.12502
lthumb 5.79613 18.3809
rfemur 1.51423 -0.816979 29.8198
rtibia 60.7255
rfoot 33.3865 -8.69912
rtoes -12.0276
lfemur -69.205 3.89612 -27.5458
ltibia 64.0816
lfoot -16.4973 -16.7178
ltoes -2.4522
384
root 2.11375 16.5368 -48.0442 -156.581 -9.60774 -181.266
lowerback 16.2209 1.62138 3.73602
upperback 0.756111 2.73643 0.921633
thorax -8.16152 1.12022 -1.74035
lowerneck -19.228 -1.86237 -3.25239
upperneck 2.07977 -2.05925 -1.01471
head 3.66466 -1.28973 0.0150561
rclavicle -3.81667e-014 -2.8625e-014
rhumerus -40.1534 10.4046 -88.4683
rradius 97.3768
rwrist -13.5116
rhand -22.6431 3.1379
rfingers 7.12502
rthumb 3.7878 -26.8082
lclavicle -3.81667e-014 -2.8625e-014
lhumerus -63.8459 -7.16182 95.0802
lradius 104.607
lwrist 16.5722
lhand -20.4768 -11.8167
lfingers 7.12502
lthumb 5.87949 18.0818
rfemur -0.291263 -2.23025 28.6944
rtibia 66.0928
rfoot 32.015 -7.91582
rtoes -12.5578
lfemur -66.9117 3.14035 -27.5958
ltibia 64.6134
lfoot -17.7222 -15.5716
ltoes 2.01324
